<?xml version="1.0" encoding="utf-8" ?><svg xmlns="http://www.w3.org/2000/svg" xmlns:xlink="http://www.w3.org/1999/xlink" width="1024" height="1024" viewBox="0 0 1024 1024"><path fill="#070706" d="M562.411 393.043C574.695 392.625 573.67 391.459 586.59 393.426C588.739 393.564 590.864 393.64 592.983 394.011C609.827 394.296 628.262 393.915 645.155 393.683C649.106 393.595 658.821 393.027 662.098 394.276C664.22 395.367 664.792 395.592 665.748 397.886C666.831 402.135 666.245 428.55 665.618 433.578C668.95 434.855 672.83 435.901 676.289 436.916C676.684 425.148 674.895 410.398 676.187 399.117C676.485 397.601 676.765 396.304 678.143 395.411C682.372 392.669 725.932 393.01 732.394 393.871L733.131 394.126C735.765 394.558 736.671 395.473 738.575 397.385C738.46 401.35 738.08 406.598 738.184 410.405C738.343 416.216 739.007 421.497 739.037 427.422L738.951 494.142L738.771 532.889C738.678 542.715 736.863 555.437 742.483 563.584C745.663 563.519 749.237 563.815 751.75 561.895C756.057 554.242 753.788 527.218 754.001 518C754.102 513.611 754.473 508.933 754.657 504.508C754.759 500.807 754.183 496.357 754.182 492.494L753.61 429.775C753.534 420.476 753.093 408.955 753.93 399.653C754.079 398.005 756.122 395.656 757.353 394.465C763.876 394.185 788.094 392.878 793.404 394.04C798.438 393.846 803.594 393.62 808.616 394.03C811.303 393.973 813.548 394.157 815.734 395.804C817.898 399.87 817.098 422.52 817.089 428.575L817.399 519.176C817.416 528.781 818.024 555.03 816.881 563.576C812.441 628.41 733.869 652.842 691.895 605.315C682.733 594.941 676.155 577.728 676.072 563.885C674.925 549.811 675.88 534.375 674.777 520.179C670.411 520.962 666.845 521.431 662.562 519.713C653.352 516.019 645.279 510.591 635.931 507.068C630.633 514.83 603.122 552.009 604.303 557.571C604.581 558.885 605.225 559.64 606.353 560.322C610.54 562.853 641.954 561.432 649.175 561.409C653.299 561.396 659.49 560.705 663.354 562.303C664.814 562.907 665.217 563.564 665.828 564.907C666.891 569.879 666.31 594.568 666.498 601.553C666.687 609.633 666.664 617.716 666.429 625.795C665.379 627.476 663.742 630.349 661.887 630.365C648.795 630.478 535.48 631.089 532.993 630.215C529.204 629.942 521.227 630.842 518.846 629.024C518.354 627.8 517.759 625.871 517.747 624.383C517.592 605.912 515.484 584.306 518.096 566.242C518.769 561.587 526.316 550.832 528.979 547.561C534.037 540.391 539.425 529.725 544.54 523.345C551.941 510.797 560.43 498.716 568.463 486.561C571.645 481.747 573.923 478.321 576.087 472.945C570.125 470.398 557.535 464.558 552.082 461.32L549.697 460.627C541.834 456.765 530.215 459.703 521.845 458.186L520.09 457.812C518.219 457.012 517.889 455.794 517.241 454.044C516.3 449.203 516.205 402.469 517.213 397.979C519.297 393.077 523.635 393.413 528.147 393.559C537.803 392.972 552.222 393.271 562.411 393.043Z"/><path fill="#E16A15" d="M584.595 489.238C584.453 482.6 586.3 465.069 582.504 459.464C580.144 457.305 575.059 457.05 575.304 452.742C575.932 441.703 583.515 424.713 591.765 416.916C617.356 392.728 626.113 412.494 616.004 438.041C610.463 435.346 600.479 430.142 594.932 428.755C569.331 457.757 606.436 446.594 608.439 471.208C609.201 480.565 605.392 484.704 609.099 493.977C607.036 496.035 603.09 499.575 602.107 502.256C599.333 509.822 599.973 519.281 598.185 527.045C592.896 550.013 581.005 572.266 560.789 585.36C559.55 586.162 554.964 587.805 553.435 588.391C573.053 590.992 585.194 594.449 602.219 606.098C598.859 601.633 595.52 597.314 592.965 592.312C604.049 588.646 625.413 588.797 637.227 590.843C643.505 591.93 657.813 596.658 663.957 599.333L666.498 601.553C666.687 609.633 666.664 617.716 666.429 625.795C665.379 627.476 663.742 630.349 661.887 630.365C648.795 630.478 535.48 631.089 532.993 630.215C529.204 629.942 521.227 630.842 518.846 629.024C518.354 627.8 517.759 625.871 517.747 624.383C517.592 605.912 515.484 584.306 518.096 566.242C518.769 561.587 526.316 550.832 528.979 547.561C534.037 540.391 539.425 529.725 544.54 523.345C551.018 521.062 571.643 499.04 579.359 494.426C581.315 493.257 583.206 491.036 584.595 489.238Z"/><path fill="#070706" d="M528.979 547.561L531.136 548.018C532.15 549.588 530.218 564.096 529.914 567.119C527.777 588.36 532.56 609.378 532.993 630.215C529.204 629.942 521.227 630.842 518.846 629.024C518.354 627.8 517.759 625.871 517.747 624.383C517.592 605.912 515.484 584.306 518.096 566.242C518.769 561.587 526.316 550.832 528.979 547.561Z"/><path fill="#070706" d="M562.411 393.043C574.695 392.625 573.67 391.459 586.59 393.426C588.739 393.564 590.864 393.64 592.983 394.011L592.904 394.58C593.002 395.774 592.998 397.184 593.402 398.245C593.007 398.407 592.478 398.688 592.11 398.691C571.574 397.232 552.257 433.732 553.488 451.233C553.615 453.029 553.293 460.198 552.082 461.32L549.697 460.627C541.834 456.765 530.215 459.703 521.845 458.186L520.09 457.812C518.219 457.012 517.889 455.794 517.241 454.044C516.3 449.203 516.205 402.469 517.213 397.979C519.297 393.077 523.635 393.413 528.147 393.559C537.803 392.972 552.222 393.271 562.411 393.043Z"/><path fill="#E16A15" d="M562.411 393.043C574.695 392.625 573.67 391.459 586.59 393.426C588.739 393.564 590.864 393.64 592.983 394.011L592.904 394.58C593.002 395.774 592.998 397.184 593.402 398.245C593.007 398.407 592.478 398.688 592.11 398.691C571.574 397.232 552.257 433.732 553.488 451.233C553.615 453.029 553.293 460.198 552.082 461.32L549.697 460.627C552.009 456.561 547.853 452.061 547.656 447.741C546.704 426.818 556.133 409.622 571.852 396.764C551.394 404.204 551.712 415.599 542.071 431.154L541.624 431.866C541.92 429.694 542.235 427.57 542.731 425.433C545.534 413.202 553.122 402.605 563.798 396.012L554.097 395.749C557.175 395.595 560.016 395.618 562.978 394.804L563.36 394.092L562.411 393.043Z"/><path fill="#E16A15" d="M586.59 393.426C588.739 393.564 590.864 393.64 592.983 394.011L592.904 394.58C590.723 395.115 583.372 395.433 581.598 394.206C583.403 393.405 584.571 393.522 586.59 393.426Z"/><path fill="#070706" d="M528.147 393.559C537.803 392.972 552.222 393.271 562.411 393.043L563.36 394.092L562.978 394.804C560.016 395.618 557.175 395.595 554.097 395.749C549.664 395.607 525.462 395.435 523.351 394.538C524.738 393.636 526.37 393.729 528.147 393.559Z"/><path fill="#070706" d="M517.213 397.979C518.448 400.205 518.487 451.516 517.241 454.044C516.3 449.203 516.205 402.469 517.213 397.979Z"/><path fill="#070706" d="M520.09 457.812C523.248 456.444 538.875 457.017 543.201 457.099L543.82 457.548L543.47 458.012C538.026 458.346 526.086 457.606 521.845 458.186L520.09 457.812Z"/><path fill="#E16A15" d="M675.797 439.314L676.915 438.902C680.22 439.982 685.866 441.778 688.55 443.91L688.942 444.851L688.939 444.572L688.394 445.597C684.416 446.356 683.533 447.925 680.383 449.965C670.918 456.097 665.019 465.732 659.159 475.085C651.883 487.054 650.288 495.644 649.003 509.208C647.998 508.07 646.605 506.579 645.722 505.407C642.217 481.587 651.93 456.91 671.199 441.941C672.467 440.956 674.444 440.251 675.797 439.314Z"/><path fill="#E16A15" d="M665.618 433.578C668.95 434.855 672.83 435.901 676.289 436.916L676.938 437.146L676.915 438.902L675.797 439.314C671.625 440.271 669.347 440.726 665.642 443.294C652.354 452.505 642.12 471.085 637.083 486.112C635.873 489.723 635.477 495.708 634.679 499.653L633.665 500.047L632.844 499.515C631.759 497.661 631.447 495.792 631.125 493.634C628.555 476.386 633.628 463.384 643.592 449.483C647.385 444.192 655.53 435.026 662.208 434.049L664.991 433.645L665.618 433.578Z"/><path fill="#E16A15" d="M593.402 398.245C598.684 397.681 601.839 399.688 606.314 402.295C601.952 405.192 597.282 406.674 592.888 409.533C579.966 417.938 571.559 434.457 567.559 448.91C566.059 454.333 566.9 460.205 565.056 465.998C554.262 443.995 570.155 406.707 592.11 398.691C592.478 398.688 593.007 398.407 593.402 398.245Z"/><path fill="#070706" d="M816.881 563.576C815.487 561.146 815.888 543.759 815.889 539.782C815.84 519.913 815.943 500.043 816.199 480.175C816.328 463.917 816.122 447.568 816.272 431.306C816.285 429.935 816.389 429.689 817.089 428.575L817.399 519.176C817.416 528.781 818.024 555.03 816.881 563.576Z"/><path fill="#070706" d="M663.957 599.333C664.097 593.763 664.165 568.35 665.828 564.907C666.891 569.879 666.31 594.568 666.498 601.553L663.957 599.333Z"/><path fill="#070706" d="M674.777 520.179L675.238 518.463L676.074 518.04C677.639 519.77 676.999 533.95 676.789 536.966C676.273 544.393 677.945 555.88 676.342 562.722L676.184 563.426C676.147 563.579 676.109 563.732 676.072 563.885C674.925 549.811 675.88 534.375 674.777 520.179Z"/><path fill="#070706" d="M664.991 433.645C665.429 426.896 664.018 401.115 665.748 397.886C666.831 402.135 666.245 428.55 665.618 433.578L664.991 433.645Z"/><path fill="#E16A15" d="M676.187 399.117L676.813 399.488C677.557 408.487 676.983 427.479 676.938 437.146L676.289 436.916C676.684 425.148 674.895 410.398 676.187 399.117Z"/><path fill="#070706" d="M645.155 393.683C649.106 393.595 658.821 393.027 662.098 394.276C659.643 395.546 648.198 395.319 645.569 394.566L645.155 393.683Z"/><path fill="#070706" d="M732.394 393.871L733.131 394.126C731.116 395.704 725.21 395.118 722.75 394.427C723.935 393.786 730.623 393.888 732.394 393.871Z"/><path fill="#E16A15" d="M696.153 458.938C698.382 459.006 700.747 459.209 701.701 461.529C703.968 467.043 701.315 477.297 699.161 482.535C694.734 493.298 687.156 508.803 675.946 513.769C665.817 515.539 669.718 502.116 671.373 496.767C675.418 483.686 683.684 465.703 696.153 458.938Z"/><path fill="#E16A15" d="M689.044 447.06C689.853 447.015 690.665 447.015 691.475 447.059C696.208 447.29 697.98 449.647 701.008 452.902C698.546 454.121 696.143 455.444 693.734 456.713C679.12 464.41 667.042 489.908 663.133 505.405C662.859 507.235 662.49 511.871 661.097 512.804L660.228 511.992C659.06 508.671 659.535 500.608 659.61 496.744C659.933 480.192 674.09 454.527 689.044 447.06Z"/><path fill="#E16A15" d="M610.983 466.076C614.611 467.385 618.425 468.4 620.743 471.373C620.9 473.302 621.045 472.352 619.955 474.249C618.025 475.58 617.563 475.985 615.243 475.506C612.536 473.742 611.899 469.33 610.983 466.076Z"/><path fill="#070706" d="M448.921 394.177C452.762 393.206 501.046 393.133 503.996 394.241C506.473 395.722 506.997 398.059 507.171 400.791C507.666 408.551 507.459 416.514 507.454 424.295L507.397 468.399L507.433 530.323C507.44 553.185 509.582 576.151 496.983 596.419C487.081 612.347 471.541 624.04 453.151 628.555C436.668 632.299 416.083 630.439 401.452 621.515C384.463 611.336 372.31 594.722 367.754 575.448C364.477 561.481 365.386 543.985 365.316 529.396L365.053 477.417C364.786 455.787 364.819 434.155 365.153 412.526C365.268 406.705 362.921 393.356 370.769 394.079C382.597 395.17 418.071 391.425 427.441 395.248C429.513 399.437 428.111 509.864 428.471 522.414C428.656 528.867 427.642 549.921 429.404 558.247C429.912 560.648 432.172 562.719 434.421 563.345C436.697 563.979 438.877 563.774 440.943 562.659C442.413 561.866 444.171 559.652 444.305 558.075C444.854 551.623 444.301 543.647 444.443 537.186C444.939 514.544 443.765 490.274 444.543 467.843C444.505 467.317 444.48 466.789 444.468 466.261C444.389 463.184 444.416 459.876 444.461 456.766C444.737 437.229 443.896 417.549 444.837 398.055C444.896 396.832 445.914 395.823 446.706 394.994L448.921 394.177Z"/><path fill="#070706" d="M446.706 394.994C447.415 401.963 446.907 422.47 446.789 430.305C446.597 443.074 447.307 465.381 445.434 477.312C445.158 474.341 444.925 470.75 444.543 467.843C444.505 467.317 444.48 466.789 444.468 466.261C444.389 463.184 444.416 459.876 444.461 456.766C444.737 437.229 443.896 417.549 444.837 398.055C444.896 396.832 445.914 395.823 446.706 394.994Z"/><path fill="#070706" d="M448.921 394.177C452.762 393.206 501.046 393.133 503.996 394.241C501.262 395.5 451.333 395.445 448.921 394.177Z"/><path fill="#070706" d="M445.267 530.467C446.797 532.208 445.848 553.202 445.742 557.066L445.172 556.777C444.883 548.204 444.698 539.013 445.267 530.467Z"/><path fill="#070706" d="M207.529 400.886C207.432 396.778 209.435 394.008 213.725 393.839C218.568 393.648 223.331 393.711 228.174 393.706L255.527 393.616C285.456 393.416 315.413 393.7 345.347 393.536C350.549 393.803 355.089 393.285 355.407 399.936C355.671 405.482 355.75 410.555 355.555 416.285C355.101 429.613 358.176 447.973 353.496 460.458C351.632 465.43 344.802 474.212 341.803 478.923C332.362 494.069 322.809 509.144 313.143 524.148C307.596 532.679 301.92 541.208 296.542 549.846C294.898 552.486 292.684 555.753 293.557 558.817C296.387 561.727 298.561 561.096 302.04 561.488C310.408 562.431 349.443 559.591 354.568 562.855C357.417 566.742 356.364 577.899 356.427 583.243L356.559 608.515C356.597 613.663 356.872 618.841 356.241 623.952C355.398 630.769 350.916 631.177 345.093 630.808L344.648 630.776C331.791 630.761 315.764 631.282 303.248 630.383C301.295 630.549 295.025 630.228 292.742 630.21L271.07 630.194C252.363 630.209 233.678 630.521 214.977 630.456C209.123 630.436 208.254 630.125 207.191 624.206L206.831 620.155C205.618 613.989 206.278 603.332 205.947 596.797C205.715 586.126 204.067 569.997 210.685 560.703C217.356 551.334 224.136 540.59 231.068 531.492C232.591 528.321 239.337 518.23 241.521 514.772L262.49 481.414C265.682 476.346 270.009 470.767 272.16 465.172C272.574 464.097 272.553 462.744 272.48 461.605C272.453 461.194 272.223 459.562 271.878 459.292C269.073 457.1 212.902 460.781 208.559 456.377C207.003 454.8 207.494 444.73 207.66 442.517C206.595 438.011 206.408 405.366 207.529 400.886Z"/><path fill="#E16A15" d="M231.068 531.492C236.75 530.136 240.36 527.75 244.88 525.63C253.988 521.358 299.59 496.706 306.233 497.835C306.948 499.847 305.245 503.285 304.232 505.179C295.085 522.278 287.358 537.899 283.543 557.209C280.297 573.635 266.666 589.577 250.615 595.152C248.89 595.745 247.159 596.319 245.422 596.875C261.642 598.102 283.733 595.109 297.282 586.834C313.994 576.626 322.288 575.752 341.677 576.839C344.802 577.015 352.605 576.987 355.229 578.281L355.744 579.404L356.427 583.243L356.559 608.515C356.597 613.663 356.872 618.841 356.241 623.952C355.398 630.769 350.916 631.177 345.093 630.808L344.648 630.776C331.791 630.761 315.764 631.282 303.248 630.383C301.295 630.549 295.025 630.228 292.742 630.21L271.07 630.194C252.363 630.209 233.678 630.521 214.977 630.456C209.123 630.436 208.254 630.125 207.191 624.206L206.831 620.155C205.618 613.989 206.278 603.332 205.947 596.797C205.715 586.126 204.067 569.997 210.685 560.703C217.356 551.334 224.136 540.59 231.068 531.492Z"/><path fill="#070706" d="M207.98 598.157C212.666 602.292 219.324 610.26 223.638 615.18C241.18 616.78 261.26 621.226 278.885 624.11C286.983 625.434 304.094 627.785 311.225 629.694C308.572 629.988 305.912 630.218 303.248 630.383C301.295 630.549 295.025 630.228 292.742 630.21L271.07 630.194C252.363 630.209 233.678 630.521 214.977 630.456C209.123 630.436 208.254 630.125 207.191 624.206C208.013 615.902 207.784 606.634 207.98 598.157Z"/><path fill="#E16A15" d="M351.197 626.42C355.208 616.501 355.469 607.233 355.161 596.778C355.052 593.093 354.383 581.877 355.744 579.404L356.427 583.243L356.559 608.515C356.597 613.663 356.872 618.841 356.241 623.952C355.398 630.769 350.916 631.177 345.093 630.808L344.648 630.776L343.688 630.184C344.973 628.753 349.33 627.113 351.197 626.42Z"/><path fill="#E16A15" d="M206.831 620.155C206.992 611.997 206.014 578.891 207.395 573.998C208.46 577.883 208.016 593.172 207.98 598.157C207.784 606.634 208.013 615.902 207.191 624.206L206.831 620.155Z"/><path fill="#E16A15" d="M207.529 400.886C208.42 405.052 208.224 437.714 207.66 442.517C206.595 438.011 206.408 405.366 207.529 400.886Z"/><path fill="#070706" d="M230.128 457.254C235.046 456.956 267.833 456.744 271.533 457.455C268.785 458.214 266.126 458.071 263.284 458.073C250.148 458.143 235.611 458.379 222.592 457.73C225.072 457.34 227.611 457.337 230.128 457.254Z"/></svg>